<?xml version="1.0" encoding="utf-8"?>
<!-- Generator: Adobe Illustrator 22.1.0, SVG Export Plug-In . SVG Version: 6.00 Build 0)  -->
<svg version="1.1" id="Camada_1" xmlns="http://www.w3.org/2000/svg" xmlns:xlink="http://www.w3.org/1999/xlink" x="0px" y="0px"
	 viewBox="0 0 208.2 203.8" style="enable-background:new 0 0 208.2 203.8;" xml:space="preserve">
<style type="text/css">
	.st0{fill:#152429;}
	.st1{fill:url(#SVGID_1_);}
	.st2{fill:url(#SVGID_2_);}
	.st3{fill:url(#SVGID_3_);}
	.st4{fill:url(#SVGID_4_);}
	.st5{fill:#6DB1BC;}
</style>
<g>
	<linearGradient id="SVGID_1_" gradientUnits="userSpaceOnUse" x1="155.1058" y1="199.281" x2="155.1058" y2="4.5125">
		<stop  offset="0" style="stop-color:#6DB1BC"/>
		<stop  offset="0.1756" style="stop-color:#68ACB4"/>
		<stop  offset="0.4719" style="stop-color:#589B9D"/>
		<stop  offset="0.8505" style="stop-color:#3B807F"/>
		<stop  offset="1" style="stop-color:#2A7572"/>
	</linearGradient>
	<path class="st1" d="M182.5,165.3c0.1,1.8,0.4,3.4,0.2,5c-0.7,5.7-5.1,9.5-10.9,9.1c-3-0.2-5.2,0.6-7.6,2.4
		c-13,9.4-27.6,14.9-43.4,17.2c-1.8,0.3-3.6,0.3-5.4,0.3c-3.5-0.1-4.7-1.2-4.9-4.8c-0.1-4.3-0.1-8.5-0.1-12.8c0-1.5,0-2.9,0-4.2
		c-7.9-8.8-7.9-13-0.2-20.2c0-28,0-56.2,0-84.4c-7.7-8.9-7.8-12.5,0.2-20.1c0-1.4,0-3.2,0-5c0-12.3,0-24.6,0-36.9
		c0-5.7,1.1-6.9,6.7-6.3c4.9,0.5,9.7,1.7,14.5,2.4c1.5,0.2,3.3,0.1,4.6-0.5c8.2-3.6,13.4-1.4,16.2,7.3c0.1,0.3,0.2,0.6,0.4,1.1
		c26.9,15.2,44.8,37.4,50.8,68.1C209.8,113.7,201.9,141.1,182.5,165.3z M131.5,16.2c-4-0.7-7.7-2.9-11.8-1.7
		c-0.9,6.1-0.7,13.8,0.5,17.3c20.7,4.2,37,15.2,48.3,33.1c10.6,2.1,13.6,10,8.1,18.6c1.7,8.4,2.8,16.7,1.9,25.3
		c-1.7,16.1-8.1,29.9-19,41.7c-8.5,9.2-18.9,15.7-31,19.2c-4.3,1.3-7.3,4.5-8.7,7.9c-1.5,3.4-0.9,7.9,0.2,12.3
		c16-2.2,29.9-8.2,42.1-17.6c0.5-8.8,2.1-13.4,13.8-13.5c36.6-42.2,23.4-110.4-26.9-135.4C140.1,27,135.2,25.1,131.5,16.2z
		 M126.5,61.8c-0.7-0.5-0.4-0.2-0.1-0.1c21.3,10.1,31.5,35,22,57.8c-0.6,1.4-0.5,3.2-0.1,4.7c1.7,7.7-2.8,13.2-10.8,13.2
		c-1.3,0-2.7-0.1-3.8,0.4c-4.7,2.3-9.2,4.8-14.4,7.6c0,1.7,0,3.8,0,5.9c0,2.1,0,4.2,0,6c1.9,1.6,3.4,2.9,4.8,4.1
		c34.5-8.2,52.9-46.8,43.1-75.3c-3.5-1-6.4-3.1-7.9-6.7c-1.5-3.6-0.2-7,1.1-10.2c-8.6-15.3-27.9-27-40.8-27.9c0,3.9,0,7.7,0,10.8
		C121.9,55.5,123.9,58.2,126.5,61.8z M122.7,70.2c-2.8,0.8-3.5,2.8-3.5,5.6c0.1,18.3,0,36.7,0.1,55c0,1.2,0.4,2.4,0.7,4.3
		c3.1-1.6,5.6-3,7.9-4.1c0.6-10.4,2.4-12.5,11.6-14.5C148.5,100,139.5,77,122.7,70.2z"/>
	<linearGradient id="SVGID_2_" gradientUnits="userSpaceOnUse" x1="49.9515" y1="199.2958" x2="49.9515" y2="4.5553">
		<stop  offset="0" style="stop-color:#6DB1BC"/>
		<stop  offset="0.1756" style="stop-color:#68ACB4"/>
		<stop  offset="0.4719" style="stop-color:#589B9D"/>
		<stop  offset="0.8505" style="stop-color:#3B807F"/>
		<stop  offset="1" style="stop-color:#2A7572"/>
	</linearGradient>
	<path class="st2" d="M97.4,102.1c0,29.8,0,59.7,0,89.5c0,7.3-0.8,8.2-7.9,7.5c-17.3-1.8-33.1-7.9-47-18.3
		c-21.9-16.3-35.3-38.1-39.1-65.2C-3.8,64,29.9,17.8,78.6,6.6c4-0.9,8-1.6,12.1-1.9c5.3-0.4,6.7,1,6.7,6.4
		c0.1,18.5,0.1,37.1,0.1,55.6C97.5,78.5,97.5,90.3,97.4,102.1C97.4,102.1,97.4,102.1,97.4,102.1z M63.2,88.2c4.2-2.2,7.9-4.8,12-6.2
		c4.1-1.4,8.6-1.6,13.1-2.3c0.1-0.8,0.3-1.8,0.3-2.7c0-8-0.2-16.1,0.1-24.1c0.2-5.3-2.3-8.4-6.6-10.4c-2.3-1.1-5-1.5-7.5-1.9
		c-3.5-0.5-5.7-2.3-5.4-5c0.3-2.6,2.2-4,5.9-3.7c3.2,0.3,6.4,1.2,9.5,1.9c1.2,0.3,2.3,0.6,3.7,1c0-7.1,0-13.8,0-20.6
		c-1.1-0.1-1.9-0.3-2.7-0.2c-8.6,1.6-17,3.7-24.5,8.3C49,29.7,46.7,45.9,56.2,56.3c4.3,4.7,9.6,7.2,16,7.4c3.3,0.1,5.3,2.3,5.1,4.9
		c-0.2,2.5-2.6,4.4-5.8,4.1c-7.6-0.6-14.4-3-20-8.4c-1.2-1.1-2.4-2.2-3.9-3.6c-3.5,2-7.1,3.7-10.2,5.9c-2.6,1.9-4.7,4.6-7,6.8
		c-1.8,1.8-3.9,2.1-5.8,0.8c-1.9-1.3-2.5-3.8-1.2-6.1c0.5-0.9,1.1-1.6,1.7-2.4c3.5-4.3,7.9-7.4,12.7-10c1.8-1,3.7-1.9,5.1-2.6
		c-0.6-5.9-1.2-11.4-1.9-17.6c-21.3,20.1-30.8,44.2-29.3,72.9c1,18.8,13.9,47.8,24.3,53.4c0.4-3.2,0.5-6.5,1.3-9.7
		c0.8-3.1,2.2-6.1,3.2-9.1c-2.1-3.5-4.4-6.7-6-10.2c-1.6-3.4-2.6-7-3.6-10.7c-0.6-2.4,1.1-4.7,3.3-5.3c2.2-0.7,4.3,0.5,5.2,3.2
		c0.4,1.2,0.6,2.6,1,3.8c1.5,4.3,2.9,8.6,6.7,11.8c0.7-0.4,1.3-0.7,1.9-1c2.5-1.3,4.8-2.9,7.4-3.9c2.8-1.1,5.2,0.1,6.1,2.5
		c0.8,2.1-0.2,4.3-2.6,5.7c-1.6,0.9-3.3,1.5-4.8,2.5c-14.8,10-12,30.6,0.6,37.5c9,4.9,18.4,8.5,28.5,10.5c1.2,0.2,2.5,0,4,0
		c0-5.3,0-10.3,0-15.4c-3-0.5-5.7-0.9-8.4-1.5c-9.3-2.1-16.3-7.5-20.8-15.9c-1.5-2.8-0.9-5.1,1.3-6.5c2.3-1.4,4.3-0.9,6.3,1.8
		c0.3,0.4,0.5,0.8,0.8,1.3c4,6.7,10,10.2,17.6,11.1c1,0.1,2.1-0.1,3.6-0.2c0-13.2,0-25.9-0.1-38.7c0-1.1-0.9-2.5-1.8-3.2
		c-5.2-4-11-5.8-17.5-3.6c-1.2,0.4-2.5,0.8-3.8,0.9c-1.8,0.1-3.2-0.7-3.9-2.4c-0.7-1.8-0.5-3.7,1-4.9c1.1-0.9,2.5-1.6,3.9-2
		c5.8-2,11.6-2,17.3,0.1c1.3,0.5,2.7,0.9,4.1,1.4c1.1-4.4,1-17.7,0-21.7c-6.6-1.4-12.2,0.6-17.3,4.7c-3.3,2.6-6.5,5.5-9.9,8.1
		c-6.2,4.8-13.2,7.1-21,7c-6.8-0.1-13.4-1-19.8-3.1c-1.1-0.4-2.2-0.7-3.2-1.2c-1.9-1.2-2.6-3.1-1.9-5.1c0.7-2.2,2.6-3.4,5-3
		c1.3,0.2,2.5,0.7,3.8,1c5.6,1.5,11.2,2.8,17,2.3c5.8-0.5,11.2-2,15.5-6.1c-2.4-4.9-5.3-8-10-10.8c-1.3-0.8-2.7-1.4-3.7-2.3
		c-1.4-1.3-2.1-2.9-1.2-4.9c0.8-1.9,2.4-2.8,4.3-2.6c1.4,0.1,3,0.5,4.1,1.4c3.8,3,7.5,6.3,11.2,9.5C61.6,86.1,62.4,87.3,63.2,88.2z"
		/>
</g>
</svg>
