<svg id="Camada_1" data-name="Camada 1" xmlns="http://www.w3.org/2000/svg" viewBox="0 0 228.21 211.53"><defs><style>.cls-1{fill:#fff;}</style></defs><title>collabrains</title><path class="cls-1" d="M191,167.91a27.31,27.31,0,0,1,.23,4.88,9.79,9.79,0,0,1-10.67,8.93,10.79,10.79,0,0,0-7.49,2.32,95.25,95.25,0,0,1-42.58,16.9,32.37,32.37,0,0,1-5.3.3c-3.42-.07-4.64-1.2-4.76-4.66-.14-4.18-.06-8.37-.07-12.55V180c-7.72-8.64-7.76-12.79-.2-19.77V77.39c-7.57-8.71-7.61-12.28.2-19.72V52.79c0-12.06,0-24.13,0-36.19,0-5.55,1.07-6.75,6.53-6.22,4.77.45,9.47,1.67,14.22,2.35a8.71,8.71,0,0,0,4.54-.45c8-3.58,13.13-1.33,15.83,7.14.1.31.24.59.43,1,26.34,14.88,43.88,36.67,49.81,66.79S210,144.2,191,167.91ZM141,21.7c-3.9-.72-7.5-2.88-11.54-1.64-.91,6-.69,13.56.48,17,20.33,4.1,36.24,14.89,47.35,32.44,10.36,2,13.34,9.83,7.89,18.27,1.65,8.2,2.74,16.37,1.86,24.84a69.07,69.07,0,0,1-18.63,40.89A65.94,65.94,0,0,1,138,172.32a13.46,13.46,0,0,0-8.53,7.72c-1.44,3.38-.93,7.75.18,12a85.11,85.11,0,0,0,41.25-17.25c.47-8.58,2.07-13.17,13.51-13.28,35.93-41.41,23-108.3-26.36-132.78C149.41,32.35,144.65,30.49,141,21.7Zm-4.84,44.79c-.65-.46-.41-.23-.13-.1a43.65,43.65,0,0,1,21.53,56.69,8.17,8.17,0,0,0-.15,4.58c1.62,7.58-2.73,13-10.56,13a8.68,8.68,0,0,0-3.7.42c-4.57,2.26-9,4.73-14.12,7.44v11.64l4.72,4c33.85-8,51.9-45.88,42.28-73.88a11.25,11.25,0,0,1-7.71-6.53c-1.48-3.57-.17-6.89,1-10-8.43-15-27.33-26.45-40.05-27.39V57Zm-3.74,8.23c-2.71.8-3.45,2.73-3.44,5.47.08,18,0,36,.08,53.92a29.89,29.89,0,0,0,.68,4.2l7.76-4.06C138,124.08,139.78,122,148.8,120,157.62,103.91,148.8,81.34,132.37,74.72Z"/><path class="cls-1" d="M107.58,105.92v87.79c0,7.16-.74,8.07-7.75,7.35a91.64,91.64,0,0,1-46.11-18c-21.52-16-34.6-37.4-38.32-64A95.79,95.79,0,0,1,89.12,12.27,83.29,83.29,0,0,1,101,10.38c5.24-.43,6.55.95,6.57,6.3q.08,27.26.07,54.51,0,17.37,0,34.73ZM74,92.37c4.14-2.19,7.77-4.71,11.8-6.07s8.39-1.52,12.89-2.25A24.42,24.42,0,0,0,99,81.36c0-7.88-.22-15.78.14-23.65.23-5.19-2.25-8.25-6.48-10.17a27.91,27.91,0,0,0-7.39-1.84c-3.48-.52-5.55-2.28-5.28-4.94.25-2.5,2.2-4,5.8-3.61A82,82,0,0,1,95.13,39c1.16.25,2.29.61,3.6,1V19.83a11.81,11.81,0,0,0-2.64-.17c-8.39,1.6-16.65,3.64-24,8.12A21.91,21.91,0,0,0,82.92,68.35c3.2.12,5.15,2.28,5,4.78s-2.57,4.31-5.64,4.07c-7.42-.57-14.11-3-19.58-8.25-1.14-1.08-2.32-2.12-3.86-3.52-3.44,2-6.95,3.59-10,5.82-2.56,1.87-4.57,4.47-6.86,6.7-1.81,1.76-3.86,2-5.67.79a4.4,4.4,0,0,1-1.23-6,15.54,15.54,0,0,1,1.69-2.35,39.51,39.51,0,0,1,12.43-9.77c1.81-1,3.64-1.89,5-2.59-.63-5.84-1.21-11.19-1.87-17.26C31.35,60.47,22.09,84.14,23.52,112.3c.93,18.48,13.64,46.89,23.87,52.34a85.55,85.55,0,0,1,1.28-9.49,84.36,84.36,0,0,1,3.18-8.89,113.63,113.63,0,0,1-5.89-10,60.76,60.76,0,0,1-3.49-10.45,4.52,4.52,0,0,1,3.22-5.24c2.18-.65,4.2.53,5.15,3.14.44,1.2.55,2.52,1,3.72,1.51,4.18,2.83,8.48,6.57,11.52.73-.37,1.29-.65,1.84-.95a72.29,72.29,0,0,1,7.23-3.8,4.33,4.33,0,0,1,6,2.41c.8,2.06-.16,4.22-2.56,5.56-1.54.86-3.22,1.49-4.68,2.47-14.53,9.76-11.78,30,.63,36.72a98.66,98.66,0,0,0,27.92,10.27,21.23,21.23,0,0,0,3.93,0V176.48c-2.94-.51-5.62-.86-8.26-1.46A29.77,29.77,0,0,1,70,159.46c-1.46-2.72-.89-5,1.23-6.35s4.24-.85,6.16,1.73c.29.39.5.83.75,1.24,3.92,6.53,9.76,10,17.25,10.92a25.15,25.15,0,0,0,3.56-.18c0-12.9,0-25.42-.08-37.94a4.72,4.72,0,0,0-1.8-3.13c-5.11-3.92-10.74-5.68-17.14-3.5a15.69,15.69,0,0,1-3.71.9,3.59,3.59,0,0,1-3.84-2.34,4,4,0,0,1,1-4.85,12.54,12.54,0,0,1,3.8-2,25.1,25.1,0,0,1,17,.12c1.31.48,2.65.9,4,1.35,1-4.27,1-17.37,0-21.24-6.43-1.34-12,.63-17,4.6-3.28,2.59-6.4,5.38-9.72,7.93a32.46,32.46,0,0,1-20.62,6.9,64.23,64.23,0,0,1-19.43-3,15.07,15.07,0,0,1-3.12-1.21,4.06,4.06,0,0,1-1.9-5,4.2,4.2,0,0,1,4.87-2.92c1.26.21,2.47.69,3.71,1,5.45,1.43,10.94,2.7,16.63,2.26s11-2,15.24-6a23.79,23.79,0,0,0-9.76-10.61,24.07,24.07,0,0,1-3.67-2.29,4,4,0,0,1-1.22-4.78,3.9,3.9,0,0,1,4.23-2.54,8.09,8.09,0,0,1,4,1.37c3.75,3,7.36,6.15,10.94,9.35A25.05,25.05,0,0,1,74,92.37Z"/></svg>